<svg width="24" height="24" viewBox="0 0 24 24" fill="none" xmlns="http://www.w3.org/2000/svg">
<path fill-rule="evenodd" clip-rule="evenodd" d="M8.05112 0.683799C8.22577 0.159856 8.79209 -0.123304 9.31603 0.0513439C9.83998 0.225992 10.1231 0.792312 9.94849 1.31625C9.21944 3.5034 7.50318 5.21966 5.31603 5.94871L5.12288 6.01898C3.78993 6.54542 2.86515 7.78888 2.75432 9.22969L1.99686 19.0767C1.9545 19.6274 1.47377 20.0394 0.923108 19.9971C0.37245 19.9547 -0.0396084 19.474 0.00274995 18.9233L0.760214 9.07629C0.93804 6.76456 2.484 4.78454 4.68358 4.05134L4.91945 3.96651C6.39648 3.39575 7.54764 2.19424 8.05112 0.683799ZM14.6838 0.0513439C15.2077 -0.123304 15.7741 0.159856 15.9487 0.683799C16.4522 2.19424 17.6033 3.39575 19.0804 3.96651L19.3163 4.05134C21.5158 4.78454 23.0618 6.76456 23.2396 9.07629L23.9971 18.9233C24.0394 19.474 23.6274 19.9547 23.0767 19.9971C22.5261 20.0394 22.0453 19.6274 22.003 19.0767L21.2455 9.22969C21.1347 7.78888 20.2099 6.54542 18.877 6.01898L18.6838 5.94871C16.4967 5.21966 14.7804 3.5034 14.0513 1.31625C13.8767 0.792312 14.1599 0.225992 14.6838 0.0513439ZM5.89674 12.5532C5.64995 12.0591 5.04936 11.8586 4.55528 12.1054C4.0612 12.3522 3.86073 12.9528 4.10751 13.4469C4.54018 14.3131 4.8991 15.3397 5.18696 16.4923C5.54123 17.9109 5.77057 19.4414 5.89812 20.9736C5.94285 21.5109 5.97158 22.0094 5.9875 22.4556L5.99242 22.6048L6.00003 23C6.00003 23.5523 6.44774 24 7.00003 24C7.55231 24 8.00003 23.5523 8.00003 23L7.99814 22.816L7.98622 22.3843C7.96922 21.9076 7.93868 21.3778 7.89122 20.8077C7.75538 19.1758 7.51061 17.5423 7.12736 16.0077C6.80649 14.7229 6.40058 13.5619 5.89674 12.5532ZM18.1052 12.5532C18.352 12.0591 18.9526 11.8586 19.4466 12.1054C19.9407 12.3522 20.1412 12.9528 19.8944 13.4469C19.4617 14.3131 19.1028 15.3397 18.815 16.4923C18.4607 17.9109 18.2314 19.4414 18.1038 20.9736C18.0591 21.5109 18.0304 22.0094 18.0144 22.4556L18.0095 22.6048L18.0019 23C18.0019 23.5523 17.5542 24 17.0019 24C16.4496 24 16.0019 23.5523 16.0019 23L16.0038 22.816L16.0157 22.3843C16.0327 21.9076 16.0632 21.3778 16.1107 20.8077C16.2466 19.1758 16.4913 17.5423 16.8746 16.0077C17.1954 14.7229 17.6014 13.5619 18.1052 12.5532ZM10 6.00003C10.5523 6.00003 11 6.44774 11 7.00003L10.9983 7.12201L10.9835 7.41649C10.9641 7.68877 10.9261 8.0263 10.8614 8.41443C10.6898 9.444 10.3805 10.4752 9.89446 11.4472C9.64747 11.9412 9.04679 12.1414 8.55281 11.8945C8.05884 11.6475 7.85861 11.0468 8.1056 10.5528C8.4946 9.77481 8.74773 8.93106 8.88863 8.08563C8.90963 7.95963 8.9271 7.84116 8.94148 7.73123L8.97583 7.42811L8.99444 7.18235L9.00003 7.00003C9.00003 6.44774 9.44774 6.00003 10 6.00003ZM12.9998 7.00003C12.9998 6.44774 13.4475 6.00003 13.9998 6.00003C14.5521 6.00003 14.9998 6.44774 14.9998 7.00003L15.0054 7.18235L15.024 7.42811L15.0584 7.73123C15.0727 7.84116 15.0902 7.95963 15.1112 8.08563C15.2521 8.93106 15.5052 9.77481 15.8942 10.5528C16.1412 11.0468 15.941 11.6475 15.447 11.8945C14.953 12.1414 14.3524 11.9412 14.1054 11.4472C13.6194 10.4752 13.31 9.444 13.1384 8.41443C13.0737 8.0263 13.0358 7.68877 13.0164 7.41649L13.0015 7.12201L12.9998 7.00003Z" fill="black"/>
</svg>
