<svg width="20" height="22" viewBox="0 0 20 22" fill="none" xmlns="http://www.w3.org/2000/svg">
<path fill-rule="evenodd" clip-rule="evenodd" d="M14.125 10.9C15.4746 9.73181 16.25 8.03493 16.25 6.25C16.25 2.79822 13.4518 0 10 0C6.54822 0 3.75 2.79822 3.75 6.25C3.74998 8.03493 4.52544 9.73181 5.875 10.9C2.30118 12.5183 0.00375763 16.0769 0 20C0 20.6904 0.559644 21.25 1.25 21.25C1.94036 21.25 2.5 20.6904 2.5 20C2.5 15.8579 5.85786 12.5 10 12.5C14.1421 12.5 17.5 15.8579 17.5 20C17.5 20.6904 18.0596 21.25 18.75 21.25C19.4404 21.25 20 20.6904 20 20C19.9962 16.0769 17.6988 12.5183 14.125 10.9ZM10 10C7.92893 10 6.25 8.32107 6.25 6.25C6.25 4.17893 7.92893 2.5 10 2.5C12.0711 2.5 13.75 4.17893 13.75 6.25C13.75 7.24456 13.3549 8.19839 12.6517 8.90165C11.9484 9.60491 10.9946 10 10 10Z" fill="#9CA3AF"/>
</svg>
