<svg width="14" height="15" viewBox="0 0 14 15" fill="none" xmlns="http://www.w3.org/2000/svg">
<mask id="mask0_377_11" style="mask-type:luminance" maskUnits="userSpaceOnUse" x="0" y="0" width="14" height="14">
<path fill-rule="evenodd" clip-rule="evenodd" d="M0.333374 0.333252H13.3179V13.3179H0.333374V0.333252Z" fill="white"/>
</mask>
<g mask="url(#mask0_377_11)">
<path fill-rule="evenodd" clip-rule="evenodd" d="M6.82592 1.33325C3.79725 1.33325 1.33325 3.79659 1.33325 6.82525C1.33325 9.85392 3.79725 12.3179 6.82592 12.3179C9.85392 12.3179 12.3179 9.85392 12.3179 6.82525C12.3179 3.79659 9.85392 1.33325 6.82592 1.33325M6.82592 13.3179C3.24592 13.3179 0.333252 10.4053 0.333252 6.82525C0.333252 3.24525 3.24592 0.333252 6.82592 0.333252C10.4059 0.333252 13.3179 3.24525 13.3179 6.82525C13.3179 10.4053 10.4059 13.3179 6.82592 13.3179" fill="#9CA3AF"/>
</g>
<mask id="mask1_377_11" style="mask-type:luminance" maskUnits="userSpaceOnUse" x="10" y="10" width="4" height="5">
<path fill-rule="evenodd" clip-rule="evenodd" d="M10.4933 10.8044H13.8427V14.1476H10.4933V10.8044Z" fill="white"/>
</mask>
<g mask="url(#mask1_377_11)">
<path fill-rule="evenodd" clip-rule="evenodd" d="M13.3428 14.1476C13.2155 14.1476 13.0875 14.0989 12.9895 14.0016L10.6401 11.6589C10.4448 11.4636 10.4441 11.1469 10.6395 10.9516C10.8341 10.7549 11.1508 10.7563 11.3468 10.9503L13.6961 13.2936C13.8915 13.4889 13.8921 13.8049 13.6968 14.0003C13.5995 14.0989 13.4708 14.1476 13.3428 14.1476" fill="#9CA3AF"/>
</g>
</svg>
